<?xml version="1.0" encoding="UTF-8" standalone="no"?>
<!DOCTYPE svg PUBLIC "-//W3C//DTD SVG 1.1//EN"
 "http://www.w3.org/Graphics/SVG/1.1/DTD/svg11.dtd">
<!-- Generated by graphviz version 2.38.0 (20140413.2041)
 -->
<!-- Title: SQL_Structure Pages: 1 -->
<svg width="1334pt" height="2434pt"
 viewBox="0.00 0.00 1334.44 2433.55" xmlns="http://www.w3.org/2000/svg" xmlns:xlink="http://www.w3.org/1999/xlink">
<g id="graph0" class="graph" transform="scale(1 1) rotate(0) translate(4 2429.55)">
<title>SQL_Structure</title>
<polygon fill="white" stroke="none" points="-4,4 -4,-2429.55 1330.44,-2429.55 1330.44,4 -4,4"/>
<!-- db_dbcomputer -->
<g id="node1" class="node"><title>db_dbcomputer</title>
<polygon fill="none" stroke="black" points="684.962,-2401.55 684.962,-2421.55 883.962,-2421.55 883.962,-2401.55 684.962,-2401.55"/>
<text text-anchor="start" x="740.527" y="-2408.35" font-family="Times,serif" font-weight="bold" font-size="14.00">db_dbcomputer</text>
<polygon fill="none" stroke="black" points="684.962,-2381.55 684.962,-2401.55 774.962,-2401.55 774.962,-2381.55 684.962,-2381.55"/>
<text text-anchor="start" x="687.962" y="-2388.35" font-family="Times,serif" text-decoration="underline" font-size="14.00">id</text>
<polygon fill="none" stroke="black" points="774.962,-2381.55 774.962,-2401.55 883.962,-2401.55 883.962,-2381.55 774.962,-2381.55"/>
<text text-anchor="start" x="777.962" y="-2387.35" font-family="Times,serif" font-size="14.00">INTEGER</text>
<polygon fill="none" stroke="black" points="684.962,-2361.55 684.962,-2381.55 774.962,-2381.55 774.962,-2361.55 684.962,-2361.55"/>
<text text-anchor="start" x="687.962" y="-2367.35" font-family="Times,serif" font-size="14.00">uuid</text>
<polygon fill="none" stroke="black" points="774.962,-2361.55 774.962,-2381.55 883.962,-2381.55 883.962,-2361.55 774.962,-2361.55"/>
<text text-anchor="start" x="777.962" y="-2367.35" font-family="Times,serif" font-size="14.00">UUID?</text>
<polygon fill="none" stroke="black" points="684.962,-2341.55 684.962,-2361.55 774.962,-2361.55 774.962,-2341.55 684.962,-2341.55"/>
<text text-anchor="start" x="687.962" y="-2347.35" font-family="Times,serif" font-size="14.00">name</text>
<polygon fill="none" stroke="black" points="774.962,-2341.55 774.962,-2361.55 883.962,-2361.55 883.962,-2341.55 774.962,-2341.55"/>
<text text-anchor="start" x="777.962" y="-2347.35" font-family="Times,serif" font-size="14.00">VARCHAR(255)</text>
<polygon fill="none" stroke="black" points="684.962,-2321.55 684.962,-2341.55 774.962,-2341.55 774.962,-2321.55 684.962,-2321.55"/>
<text text-anchor="start" x="687.962" y="-2327.35" font-family="Times,serif" font-size="14.00">hostname</text>
<polygon fill="none" stroke="black" points="774.962,-2321.55 774.962,-2341.55 883.962,-2341.55 883.962,-2321.55 774.962,-2321.55"/>
<text text-anchor="start" x="777.868" y="-2327.35" font-family="Times,serif" font-size="14.00">VARCHAR(255)?</text>
<polygon fill="none" stroke="black" points="684.962,-2301.55 684.962,-2321.55 774.962,-2321.55 774.962,-2301.55 684.962,-2301.55"/>
<text text-anchor="start" x="687.962" y="-2307.35" font-family="Times,serif" font-size="14.00">description</text>
<polygon fill="none" stroke="black" points="774.962,-2301.55 774.962,-2321.55 883.962,-2321.55 883.962,-2301.55 774.962,-2301.55"/>
<text text-anchor="start" x="777.962" y="-2307.35" font-family="Times,serif" font-size="14.00">TEXT?</text>
<polygon fill="none" stroke="black" points="684.962,-2281.55 684.962,-2301.55 774.962,-2301.55 774.962,-2281.55 684.962,-2281.55"/>
<text text-anchor="start" x="687.589" y="-2287.35" font-family="Times,serif" font-size="14.00">scheduler_type</text>
<polygon fill="none" stroke="black" points="774.962,-2281.55 774.962,-2301.55 883.962,-2301.55 883.962,-2281.55 774.962,-2281.55"/>
<text text-anchor="start" x="777.868" y="-2287.35" font-family="Times,serif" font-size="14.00">VARCHAR(255)?</text>
<polygon fill="none" stroke="black" points="684.962,-2261.55 684.962,-2281.55 774.962,-2281.55 774.962,-2261.55 684.962,-2261.55"/>
<text text-anchor="start" x="687.962" y="-2267.35" font-family="Times,serif" font-size="14.00">transport_type</text>
<polygon fill="none" stroke="black" points="774.962,-2261.55 774.962,-2281.55 883.962,-2281.55 883.962,-2261.55 774.962,-2261.55"/>
<text text-anchor="start" x="777.868" y="-2267.35" font-family="Times,serif" font-size="14.00">VARCHAR(255)?</text>
<polygon fill="none" stroke="black" points="684.962,-2241.55 684.962,-2261.55 774.962,-2261.55 774.962,-2241.55 684.962,-2241.55"/>
<text text-anchor="start" x="687.962" y="-2247.35" font-family="Times,serif" font-size="14.00">metadata</text>
<polygon fill="none" stroke="black" points="774.962,-2241.55 774.962,-2261.55 883.962,-2261.55 883.962,-2241.55 774.962,-2241.55"/>
<text text-anchor="start" x="777.962" y="-2247.35" font-family="Times,serif" font-size="14.00">JSONB?</text>
<polygon fill="none" stroke="black" points="684.962,-2221.55 684.962,-2241.55 883.962,-2241.55 883.962,-2221.55 684.962,-2221.55"/>
<text text-anchor="start" x="687.962" y="-2228.35" font-family="Times,serif" font-weight="bold" font-size="14.00">Constraints</text>
<polygon fill="none" stroke="black" points="684.962,-2201.55 684.962,-2221.55 883.962,-2221.55 883.962,-2201.55 684.962,-2201.55"/>
<text text-anchor="start" x="687.962" y="-2207.35" font-family="Times,serif" font-size="14.00">UNIQUE (name)</text>
<polygon fill="none" stroke="black" points="684.962,-2181.55 684.962,-2201.55 883.962,-2201.55 883.962,-2181.55 684.962,-2181.55"/>
<text text-anchor="start" x="687.962" y="-2187.35" font-family="Times,serif" font-size="14.00">UNIQUE (uuid)</text>
<polygon fill="none" stroke="black" points="684.962,-2161.55 684.962,-2181.55 883.962,-2181.55 883.962,-2161.55 684.962,-2161.55"/>
<text text-anchor="start" x="687.962" y="-2168.35" font-family="Times,serif" font-weight="bold" font-size="14.00">ORM Classes</text>
<polygon fill="none" stroke="black" points="684.962,-2121.55 684.962,-2161.55 774.962,-2161.55 774.962,-2121.55 684.962,-2121.55"/>
<text text-anchor="start" x="687.962" y="-2137.35" font-family="Times,serif" font-size="14.00">DbComputer</text>
<polygon fill="none" stroke="black" points="774.962,-2141.55 774.962,-2161.55 883.962,-2161.55 883.962,-2141.55 774.962,-2141.55"/>
<text text-anchor="start" x="777.962" y="-2147.35" font-family="Times,serif" font-size="14.00">authinfos</text>
<polygon fill="none" stroke="black" points="774.962,-2121.55 774.962,-2141.55 883.962,-2141.55 883.962,-2121.55 774.962,-2121.55"/>
<text text-anchor="start" x="777.962" y="-2127.35" font-family="Times,serif" font-size="14.00">dbnodes</text>
</g>
<!-- db_dbauthinfo -->
<g id="node4" class="node"><title>db_dbauthinfo</title>
<polygon fill="none" stroke="black" points="576.962,-1985.55 576.962,-2005.55 808.962,-2005.55 808.962,-1985.55 576.962,-1985.55"/>
<text text-anchor="start" x="652.134" y="-1992.35" font-family="Times,serif" font-weight="bold" font-size="14.00">db_dbauthinfo</text>
<polygon fill="none" stroke="black" points="576.962,-1965.55 576.962,-1985.55 697.962,-1985.55 697.962,-1965.55 576.962,-1965.55"/>
<text text-anchor="start" x="579.962" y="-1972.35" font-family="Times,serif" text-decoration="underline" font-size="14.00">id</text>
<polygon fill="none" stroke="black" points="697.962,-1965.55 697.962,-1985.55 808.962,-1985.55 808.962,-1965.55 697.962,-1965.55"/>
<text text-anchor="start" x="700.962" y="-1971.35" font-family="Times,serif" font-size="14.00">INTEGER</text>
<polygon fill="none" stroke="black" points="576.962,-1945.55 576.962,-1965.55 697.962,-1965.55 697.962,-1945.55 576.962,-1945.55"/>
<text text-anchor="start" x="579.962" y="-1951.35" font-family="Times,serif" font-size="14.00">aiidauser_id</text>
<polygon fill="none" stroke="black" points="697.962,-1945.55 697.962,-1965.55 808.962,-1965.55 808.962,-1945.55 697.962,-1945.55"/>
<text text-anchor="start" x="700.962" y="-1951.35" font-family="Times,serif" font-size="14.00">INTEGER?</text>
<polygon fill="none" stroke="black" points="576.962,-1925.55 576.962,-1945.55 697.962,-1945.55 697.962,-1925.55 576.962,-1925.55"/>
<text text-anchor="start" x="579.962" y="-1931.35" font-family="Times,serif" font-size="14.00">dbcomputer_id</text>
<polygon fill="none" stroke="black" points="697.962,-1925.55 697.962,-1945.55 808.962,-1945.55 808.962,-1925.55 697.962,-1925.55"/>
<text text-anchor="start" x="700.962" y="-1931.35" font-family="Times,serif" font-size="14.00">INTEGER?</text>
<polygon fill="none" stroke="black" points="576.962,-1905.55 576.962,-1925.55 697.962,-1925.55 697.962,-1905.55 576.962,-1905.55"/>
<text text-anchor="start" x="579.962" y="-1911.35" font-family="Times,serif" font-size="14.00">metadata</text>
<polygon fill="none" stroke="black" points="697.962,-1905.55 697.962,-1925.55 808.962,-1925.55 808.962,-1905.55 697.962,-1905.55"/>
<text text-anchor="start" x="700.962" y="-1911.35" font-family="Times,serif" font-size="14.00">JSONB?</text>
<polygon fill="none" stroke="black" points="576.962,-1885.55 576.962,-1905.55 697.962,-1905.55 697.962,-1885.55 576.962,-1885.55"/>
<text text-anchor="start" x="579.962" y="-1891.35" font-family="Times,serif" font-size="14.00">auth_params</text>
<polygon fill="none" stroke="black" points="697.962,-1885.55 697.962,-1905.55 808.962,-1905.55 808.962,-1885.55 697.962,-1885.55"/>
<text text-anchor="start" x="700.962" y="-1891.35" font-family="Times,serif" font-size="14.00">JSONB?</text>
<polygon fill="none" stroke="black" points="576.962,-1865.55 576.962,-1885.55 697.962,-1885.55 697.962,-1865.55 576.962,-1865.55"/>
<text text-anchor="start" x="579.962" y="-1871.35" font-family="Times,serif" font-size="14.00">enabled</text>
<polygon fill="none" stroke="black" points="697.962,-1865.55 697.962,-1885.55 808.962,-1885.55 808.962,-1865.55 697.962,-1865.55"/>
<text text-anchor="start" x="700.962" y="-1871.35" font-family="Times,serif" font-size="14.00">BOOLEAN?</text>
<polygon fill="none" stroke="black" points="576.962,-1845.55 576.962,-1865.55 808.962,-1865.55 808.962,-1845.55 576.962,-1845.55"/>
<text text-anchor="start" x="579.962" y="-1852.35" font-family="Times,serif" font-weight="bold" font-size="14.00">Constraints</text>
<polygon fill="none" stroke="black" points="576.962,-1825.55 576.962,-1845.55 808.962,-1845.55 808.962,-1825.55 576.962,-1825.55"/>
<text text-anchor="start" x="579.632" y="-1831.35" font-family="Times,serif" font-size="14.00">UNIQUE (aiidauser_id, dbcomputer_id)</text>
<polygon fill="none" stroke="black" points="576.962,-1805.55 576.962,-1825.55 808.962,-1825.55 808.962,-1805.55 576.962,-1805.55"/>
<text text-anchor="start" x="579.962" y="-1812.35" font-family="Times,serif" font-weight="bold" font-size="14.00">ORM Classes</text>
<polygon fill="none" stroke="black" points="576.962,-1765.55 576.962,-1805.55 697.962,-1805.55 697.962,-1765.55 576.962,-1765.55"/>
<text text-anchor="start" x="579.962" y="-1781.35" font-family="Times,serif" font-size="14.00">DbAuthInfo</text>
<polygon fill="none" stroke="black" points="697.962,-1785.55 697.962,-1805.55 808.962,-1805.55 808.962,-1785.55 697.962,-1785.55"/>
<text text-anchor="start" x="700.962" y="-1791.35" font-family="Times,serif" font-size="14.00">aiidauser</text>
<polygon fill="none" stroke="black" points="697.962,-1765.55 697.962,-1785.55 808.962,-1785.55 808.962,-1765.55 697.962,-1765.55"/>
<text text-anchor="start" x="700.962" y="-1771.35" font-family="Times,serif" font-size="14.00">dbcomputer</text>
</g>
<!-- db_dbcomputer&#45;&gt;db_dbauthinfo -->
<g id="edge1" class="edge"><title>db_dbcomputer:DbComputer_authinfos&#45;&gt;db_dbauthinfo:DbAuthInfo</title>
<path fill="none" stroke="black" stroke-dasharray="5,2" d="M884.962,-2151.55C900.079,-2151.55 891.4,-2130.71 883.962,-2117.55 854.845,-2066.03 827.06,-2067.14 771.962,-2045.55 686.647,-2012.12 627.826,-2079.77 568.962,-2009.55 499.296,-1926.44 492.846,-1842.79 568.962,-1765.55 587.359,-1746.88 624.986,-1737.11 634.656,-1754.55"/>
<polygon fill="black" stroke="black" points="631.303,-1755.59 636.962,-1764.55 638.124,-1754.02 631.303,-1755.59"/>
</g>
<!-- db_dbnode -->
<g id="node6" class="node"><title>db_dbnode</title>
<polygon fill="none" stroke="black" points="551.962,-1081.55 551.962,-1101.55 750.962,-1101.55 750.962,-1081.55 551.962,-1081.55"/>
<text text-anchor="start" x="620.355" y="-1088.35" font-family="Times,serif" font-weight="bold" font-size="14.00">db_dbnode</text>
<polygon fill="none" stroke="black" points="551.962,-1061.55 551.962,-1081.55 641.962,-1081.55 641.962,-1061.55 551.962,-1061.55"/>
<text text-anchor="start" x="554.962" y="-1068.35" font-family="Times,serif" text-decoration="underline" font-size="14.00">id</text>
<polygon fill="none" stroke="black" points="641.962,-1061.55 641.962,-1081.55 750.962,-1081.55 750.962,-1061.55 641.962,-1061.55"/>
<text text-anchor="start" x="644.962" y="-1067.35" font-family="Times,serif" font-size="14.00">INTEGER</text>
<polygon fill="none" stroke="black" points="551.962,-1041.55 551.962,-1061.55 641.962,-1061.55 641.962,-1041.55 551.962,-1041.55"/>
<text text-anchor="start" x="554.962" y="-1047.35" font-family="Times,serif" font-size="14.00">uuid</text>
<polygon fill="none" stroke="black" points="641.962,-1041.55 641.962,-1061.55 750.962,-1061.55 750.962,-1041.55 641.962,-1041.55"/>
<text text-anchor="start" x="644.962" y="-1047.35" font-family="Times,serif" font-size="14.00">UUID?</text>
<polygon fill="none" stroke="black" points="551.962,-1021.55 551.962,-1041.55 641.962,-1041.55 641.962,-1021.55 551.962,-1021.55"/>
<text text-anchor="start" x="554.962" y="-1027.35" font-family="Times,serif" font-size="14.00">node_type</text>
<polygon fill="none" stroke="black" points="641.962,-1021.55 641.962,-1041.55 750.962,-1041.55 750.962,-1021.55 641.962,-1021.55"/>
<text text-anchor="start" x="644.868" y="-1027.35" font-family="Times,serif" font-size="14.00">VARCHAR(255)?</text>
<polygon fill="none" stroke="black" points="551.962,-1001.55 551.962,-1021.55 641.962,-1021.55 641.962,-1001.55 551.962,-1001.55"/>
<text text-anchor="start" x="554.962" y="-1007.35" font-family="Times,serif" font-size="14.00">process_type</text>
<polygon fill="none" stroke="black" points="641.962,-1001.55 641.962,-1021.55 750.962,-1021.55 750.962,-1001.55 641.962,-1001.55"/>
<text text-anchor="start" x="644.868" y="-1007.35" font-family="Times,serif" font-size="14.00">VARCHAR(255)?</text>
<polygon fill="none" stroke="black" points="551.962,-981.551 551.962,-1001.55 641.962,-1001.55 641.962,-981.551 551.962,-981.551"/>
<text text-anchor="start" x="554.962" y="-987.351" font-family="Times,serif" font-size="14.00">label</text>
<polygon fill="none" stroke="black" points="641.962,-981.551 641.962,-1001.55 750.962,-1001.55 750.962,-981.551 641.962,-981.551"/>
<text text-anchor="start" x="644.868" y="-987.351" font-family="Times,serif" font-size="14.00">VARCHAR(255)?</text>
<polygon fill="none" stroke="black" points="551.962,-961.551 551.962,-981.551 641.962,-981.551 641.962,-961.551 551.962,-961.551"/>
<text text-anchor="start" x="554.962" y="-967.351" font-family="Times,serif" font-size="14.00">description</text>
<polygon fill="none" stroke="black" points="641.962,-961.551 641.962,-981.551 750.962,-981.551 750.962,-961.551 641.962,-961.551"/>
<text text-anchor="start" x="644.962" y="-967.351" font-family="Times,serif" font-size="14.00">TEXT?</text>
<polygon fill="none" stroke="black" points="551.962,-941.551 551.962,-961.551 641.962,-961.551 641.962,-941.551 551.962,-941.551"/>
<text text-anchor="start" x="554.962" y="-947.351" font-family="Times,serif" font-size="14.00">ctime</text>
<polygon fill="none" stroke="black" points="641.962,-941.551 641.962,-961.551 750.962,-961.551 750.962,-941.551 641.962,-941.551"/>
<text text-anchor="start" x="644.962" y="-947.351" font-family="Times,serif" font-size="14.00">DATETIME?</text>
<polygon fill="none" stroke="black" points="551.962,-921.551 551.962,-941.551 641.962,-941.551 641.962,-921.551 551.962,-921.551"/>
<text text-anchor="start" x="554.962" y="-927.351" font-family="Times,serif" font-size="14.00">mtime</text>
<polygon fill="none" stroke="black" points="641.962,-921.551 641.962,-941.551 750.962,-941.551 750.962,-921.551 641.962,-921.551"/>
<text text-anchor="start" x="644.962" y="-927.351" font-family="Times,serif" font-size="14.00">DATETIME?</text>
<polygon fill="none" stroke="black" points="551.962,-901.551 551.962,-921.551 641.962,-921.551 641.962,-901.551 551.962,-901.551"/>
<text text-anchor="start" x="554.962" y="-907.351" font-family="Times,serif" font-size="14.00">attributes</text>
<polygon fill="none" stroke="black" points="641.962,-901.551 641.962,-921.551 750.962,-921.551 750.962,-901.551 641.962,-901.551"/>
<text text-anchor="start" x="644.962" y="-907.351" font-family="Times,serif" font-size="14.00">JSONB?</text>
<polygon fill="none" stroke="black" points="551.962,-881.551 551.962,-901.551 641.962,-901.551 641.962,-881.551 551.962,-881.551"/>
<text text-anchor="start" x="554.962" y="-887.351" font-family="Times,serif" font-size="14.00">extras</text>
<polygon fill="none" stroke="black" points="641.962,-881.551 641.962,-901.551 750.962,-901.551 750.962,-881.551 641.962,-881.551"/>
<text text-anchor="start" x="644.962" y="-887.351" font-family="Times,serif" font-size="14.00">JSONB?</text>
<polygon fill="none" stroke="black" points="551.962,-861.551 551.962,-881.551 641.962,-881.551 641.962,-861.551 551.962,-861.551"/>
<text text-anchor="start" x="554.582" y="-867.351" font-family="Times,serif" font-size="14.00">dbcomputer_id</text>
<polygon fill="none" stroke="black" points="641.962,-861.551 641.962,-881.551 750.962,-881.551 750.962,-861.551 641.962,-861.551"/>
<text text-anchor="start" x="644.962" y="-867.351" font-family="Times,serif" font-size="14.00">INTEGER?</text>
<polygon fill="none" stroke="black" points="551.962,-841.551 551.962,-861.551 641.962,-861.551 641.962,-841.551 551.962,-841.551"/>
<text text-anchor="start" x="554.962" y="-847.351" font-family="Times,serif" font-size="14.00">user_id</text>
<polygon fill="none" stroke="black" points="641.962,-841.551 641.962,-861.551 750.962,-861.551 750.962,-841.551 641.962,-841.551"/>
<text text-anchor="start" x="644.962" y="-847.351" font-family="Times,serif" font-size="14.00">INTEGER</text>
<polygon fill="none" stroke="black" points="551.962,-821.551 551.962,-841.551 750.962,-841.551 750.962,-821.551 551.962,-821.551"/>
<text text-anchor="start" x="554.962" y="-828.351" font-family="Times,serif" font-weight="bold" font-size="14.00">Constraints</text>
<polygon fill="none" stroke="black" points="551.962,-801.551 551.962,-821.551 750.962,-821.551 750.962,-801.551 551.962,-801.551"/>
<text text-anchor="start" x="554.962" y="-807.351" font-family="Times,serif" font-size="14.00">UNIQUE (uuid)</text>
<polygon fill="none" stroke="black" points="551.962,-781.551 551.962,-801.551 750.962,-801.551 750.962,-781.551 551.962,-781.551"/>
<text text-anchor="start" x="554.962" y="-788.351" font-family="Times,serif" font-weight="bold" font-size="14.00">ORM Classes</text>
<polygon fill="none" stroke="black" points="551.962,-641.551 551.962,-781.551 641.962,-781.551 641.962,-641.551 551.962,-641.551"/>
<text text-anchor="start" x="554.962" y="-707.351" font-family="Times,serif" font-size="14.00">DbNode</text>
<polygon fill="none" stroke="black" points="641.962,-761.551 641.962,-781.551 750.962,-781.551 750.962,-761.551 641.962,-761.551"/>
<text text-anchor="start" x="644.962" y="-767.351" font-family="Times,serif" font-size="14.00">dbcomputer</text>
<polygon fill="none" stroke="black" points="641.962,-741.551 641.962,-761.551 750.962,-761.551 750.962,-741.551 641.962,-741.551"/>
<text text-anchor="start" x="644.962" y="-747.351" font-family="Times,serif" font-size="14.00">user</text>
<polygon fill="none" stroke="black" points="641.962,-721.551 641.962,-741.551 750.962,-741.551 750.962,-721.551 641.962,-721.551"/>
<text text-anchor="start" x="644.962" y="-727.351" font-family="Times,serif" font-size="14.00">outputs_q</text>
<polygon fill="none" stroke="black" points="641.962,-701.551 641.962,-721.551 750.962,-721.551 750.962,-701.551 641.962,-701.551"/>
<text text-anchor="start" x="644.962" y="-707.351" font-family="Times,serif" font-size="14.00">dbcomments</text>
<polygon fill="none" stroke="black" points="641.962,-681.551 641.962,-701.551 750.962,-701.551 750.962,-681.551 641.962,-681.551"/>
<text text-anchor="start" x="644.962" y="-687.351" font-family="Times,serif" font-size="14.00">dbgroups</text>
<polygon fill="none" stroke="black" points="641.962,-661.551 641.962,-681.551 750.962,-681.551 750.962,-661.551 641.962,-661.551"/>
<text text-anchor="start" x="644.962" y="-667.351" font-family="Times,serif" font-size="14.00">dblogs</text>
<polygon fill="none" stroke="black" points="641.962,-641.551 641.962,-661.551 750.962,-661.551 750.962,-641.551 641.962,-641.551"/>
<text text-anchor="start" x="644.962" y="-647.351" font-family="Times,serif" font-size="14.00">inputs_q</text>
</g>
<!-- db_dbcomputer&#45;&gt;db_dbnode -->
<g id="edge2" class="edge"><title>db_dbcomputer:DbComputer_dbnodes&#45;&gt;db_dbnode:DbNode</title>
<path fill="none" stroke="black" stroke-dasharray="5,2" d="M884.962,-2131.55C893.907,-2131.55 1093.96,-1895.5 1093.96,-1886.55 1093.96,-1886.55 1093.96,-1886.55 1093.96,-1462.55 1093.96,-1296.31 1042.18,-1230.86 901.962,-1141.55 836.014,-1099.55 604.418,-1163.53 551.962,-1105.55 436.889,-978.36 378.28,-722.329 540.482,-711.881"/>
<polygon fill="black" stroke="black" points="541.077,-715.364 550.962,-711.551 540.857,-708.367 541.077,-715.364"/>
</g>
<!-- label_db_dbcomputer_id_db_dbauthinfo_dbcomputer_id -->
<g id="node11" class="node"><title>label_db_dbcomputer_id_db_dbauthinfo_dbcomputer_id</title>
<ellipse fill="none" stroke="black" cx="622.962" cy="-2063.55" rx="106.924" ry="18"/>
<text text-anchor="middle" x="622.962" y="-2059.35" font-family="Times,serif" font-size="14.00">ON_DELETE=CASCADE</text>
</g>
<!-- db_dbcomputer&#45;&gt;label_db_dbcomputer_id_db_dbauthinfo_dbcomputer_id -->
<g id="edge6" class="edge"><title>db_dbcomputer:id&#45;&gt;label_db_dbcomputer_id_db_dbauthinfo_dbcomputer_id</title>
<path fill="none" stroke="black" d="M683.962,-2391.55C562.343,-2391.55 599.54,-2170.26 616.56,-2091.76"/>
<polygon fill="black" stroke="black" points="620.05,-2092.19 618.809,-2081.67 613.218,-2090.67 620.05,-2092.19"/>
</g>
<!-- label_db_dbcomputer_id_db_dbnode_dbcomputer_id -->
<g id="node14" class="node"><title>label_db_dbcomputer_id_db_dbnode_dbcomputer_id</title>
<ellipse fill="none" stroke="black" cx="317.962" cy="-1885.55" rx="107.399" ry="18"/>
<text text-anchor="middle" x="317.962" y="-1881.35" font-family="Times,serif" font-size="14.00">ON_DELETE=RESTRICT</text>
</g>
<!-- db_dbcomputer&#45;&gt;label_db_dbcomputer_id_db_dbnode_dbcomputer_id -->
<g id="edge16" class="edge"><title>db_dbcomputer:id&#45;&gt;label_db_dbcomputer_id_db_dbnode_dbcomputer_id</title>
<path fill="none" stroke="black" d="M683.962,-2391.55C445.546,-2391.55 346.495,-2017.96 323.448,-1913.43"/>
<polygon fill="black" stroke="black" points="326.867,-1912.68 321.34,-1903.64 320.023,-1914.16 326.867,-1912.68"/>
</g>
<!-- db_dbsetting -->
<g id="node2" class="node"><title>db_dbsetting</title>
<polygon fill="none" stroke="black" points="917.962,-2351.55 917.962,-2371.55 1087.96,-2371.55 1087.96,-2351.55 917.962,-2351.55"/>
<text text-anchor="start" x="966.796" y="-2358.35" font-family="Times,serif" font-weight="bold" font-size="14.00">db_dbsetting</text>
<polygon fill="none" stroke="black" points="917.962,-2331.55 917.962,-2351.55 985.962,-2351.55 985.962,-2331.55 917.962,-2331.55"/>
<text text-anchor="start" x="920.962" y="-2338.35" font-family="Times,serif" text-decoration="underline" font-size="14.00">id</text>
<polygon fill="none" stroke="black" points="985.962,-2331.55 985.962,-2351.55 1087.96,-2351.55 1087.96,-2331.55 985.962,-2331.55"/>
<text text-anchor="start" x="988.962" y="-2337.35" font-family="Times,serif" font-size="14.00">INTEGER</text>
<polygon fill="none" stroke="black" points="917.962,-2311.55 917.962,-2331.55 985.962,-2331.55 985.962,-2311.55 917.962,-2311.55"/>
<text text-anchor="start" x="920.962" y="-2317.35" font-family="Times,serif" font-size="14.00">key</text>
<polygon fill="none" stroke="black" points="985.962,-2311.55 985.962,-2331.55 1087.96,-2331.55 1087.96,-2311.55 985.962,-2311.55"/>
<text text-anchor="start" x="988.474" y="-2317.35" font-family="Times,serif" font-size="14.00">VARCHAR(255)</text>
<polygon fill="none" stroke="black" points="917.962,-2291.55 917.962,-2311.55 985.962,-2311.55 985.962,-2291.55 917.962,-2291.55"/>
<text text-anchor="start" x="920.962" y="-2297.35" font-family="Times,serif" font-size="14.00">val</text>
<polygon fill="none" stroke="black" points="985.962,-2291.55 985.962,-2311.55 1087.96,-2311.55 1087.96,-2291.55 985.962,-2291.55"/>
<text text-anchor="start" x="988.962" y="-2297.35" font-family="Times,serif" font-size="14.00">JSONB?</text>
<polygon fill="none" stroke="black" points="917.962,-2271.55 917.962,-2291.55 985.962,-2291.55 985.962,-2271.55 917.962,-2271.55"/>
<text text-anchor="start" x="920.858" y="-2277.35" font-family="Times,serif" font-size="14.00">description</text>
<polygon fill="none" stroke="black" points="985.962,-2271.55 985.962,-2291.55 1087.96,-2291.55 1087.96,-2271.55 985.962,-2271.55"/>
<text text-anchor="start" x="988.474" y="-2277.35" font-family="Times,serif" font-size="14.00">VARCHAR(255)</text>
<polygon fill="none" stroke="black" points="917.962,-2251.55 917.962,-2271.55 985.962,-2271.55 985.962,-2251.55 917.962,-2251.55"/>
<text text-anchor="start" x="920.962" y="-2257.35" font-family="Times,serif" font-size="14.00">time</text>
<polygon fill="none" stroke="black" points="985.962,-2251.55 985.962,-2271.55 1087.96,-2271.55 1087.96,-2251.55 985.962,-2251.55"/>
<text text-anchor="start" x="988.962" y="-2257.35" font-family="Times,serif" font-size="14.00">DATETIME?</text>
<polygon fill="none" stroke="black" points="917.962,-2231.55 917.962,-2251.55 1087.96,-2251.55 1087.96,-2231.55 917.962,-2231.55"/>
<text text-anchor="start" x="920.962" y="-2238.35" font-family="Times,serif" font-weight="bold" font-size="14.00">Constraints</text>
<polygon fill="none" stroke="black" points="917.962,-2211.55 917.962,-2231.55 1087.96,-2231.55 1087.96,-2211.55 917.962,-2211.55"/>
<text text-anchor="start" x="920.962" y="-2217.35" font-family="Times,serif" font-size="14.00">UNIQUE (key)</text>
<polygon fill="none" stroke="black" points="917.962,-2191.55 917.962,-2211.55 1087.96,-2211.55 1087.96,-2191.55 917.962,-2191.55"/>
<text text-anchor="start" x="920.962" y="-2198.35" font-family="Times,serif" font-weight="bold" font-size="14.00">ORM Classes</text>
<polygon fill="none" stroke="black" points="917.962,-2171.55 917.962,-2191.55 1087.96,-2191.55 1087.96,-2171.55 917.962,-2171.55"/>
<text text-anchor="start" x="920.962" y="-2177.35" font-family="Times,serif" font-size="14.00">DbSetting</text>
</g>
<!-- db_dbuser -->
<g id="node3" class="node"><title>db_dbuser</title>
<polygon fill="none" stroke="black" points="677.962,-1701.55 677.962,-1721.55 851.962,-1721.55 851.962,-1701.55 677.962,-1701.55"/>
<text text-anchor="start" x="735.8" y="-1708.35" font-family="Times,serif" font-weight="bold" font-size="14.00">db_dbuser</text>
<polygon fill="none" stroke="black" points="677.962,-1681.55 677.962,-1701.55 742.962,-1701.55 742.962,-1681.55 677.962,-1681.55"/>
<text text-anchor="start" x="680.962" y="-1688.35" font-family="Times,serif" text-decoration="underline" font-size="14.00">id</text>
<polygon fill="none" stroke="black" points="742.962,-1681.55 742.962,-1701.55 851.962,-1701.55 851.962,-1681.55 742.962,-1681.55"/>
<text text-anchor="start" x="745.962" y="-1687.35" font-family="Times,serif" font-size="14.00">INTEGER</text>
<polygon fill="none" stroke="black" points="677.962,-1661.55 677.962,-1681.55 742.962,-1681.55 742.962,-1661.55 677.962,-1661.55"/>
<text text-anchor="start" x="680.962" y="-1667.35" font-family="Times,serif" font-size="14.00">email</text>
<polygon fill="none" stroke="black" points="742.962,-1661.55 742.962,-1681.55 851.962,-1681.55 851.962,-1661.55 742.962,-1661.55"/>
<text text-anchor="start" x="745.868" y="-1667.35" font-family="Times,serif" font-size="14.00">VARCHAR(254)?</text>
<polygon fill="none" stroke="black" points="677.962,-1641.55 677.962,-1661.55 742.962,-1661.55 742.962,-1641.55 677.962,-1641.55"/>
<text text-anchor="start" x="680.91" y="-1647.35" font-family="Times,serif" font-size="14.00">first_name</text>
<polygon fill="none" stroke="black" points="742.962,-1641.55 742.962,-1661.55 851.962,-1661.55 851.962,-1641.55 742.962,-1641.55"/>
<text text-anchor="start" x="745.868" y="-1647.35" font-family="Times,serif" font-size="14.00">VARCHAR(254)?</text>
<polygon fill="none" stroke="black" points="677.962,-1621.55 677.962,-1641.55 742.962,-1641.55 742.962,-1621.55 677.962,-1621.55"/>
<text text-anchor="start" x="680.962" y="-1627.35" font-family="Times,serif" font-size="14.00">last_name</text>
<polygon fill="none" stroke="black" points="742.962,-1621.55 742.962,-1641.55 851.962,-1641.55 851.962,-1621.55 742.962,-1621.55"/>
<text text-anchor="start" x="745.868" y="-1627.35" font-family="Times,serif" font-size="14.00">VARCHAR(254)?</text>
<polygon fill="none" stroke="black" points="677.962,-1601.55 677.962,-1621.55 742.962,-1621.55 742.962,-1601.55 677.962,-1601.55"/>
<text text-anchor="start" x="680.962" y="-1607.35" font-family="Times,serif" font-size="14.00">institution</text>
<polygon fill="none" stroke="black" points="742.962,-1601.55 742.962,-1621.55 851.962,-1621.55 851.962,-1601.55 742.962,-1601.55"/>
<text text-anchor="start" x="745.868" y="-1607.35" font-family="Times,serif" font-size="14.00">VARCHAR(254)?</text>
<polygon fill="none" stroke="black" points="677.962,-1581.55 677.962,-1601.55 851.962,-1601.55 851.962,-1581.55 677.962,-1581.55"/>
<text text-anchor="start" x="680.962" y="-1588.35" font-family="Times,serif" font-weight="bold" font-size="14.00">ORM Classes</text>
<polygon fill="none" stroke="black" points="677.962,-1521.55 677.962,-1581.55 742.962,-1581.55 742.962,-1521.55 677.962,-1521.55"/>
<text text-anchor="start" x="680.962" y="-1547.35" font-family="Times,serif" font-size="14.00">DbUser</text>
<polygon fill="none" stroke="black" points="742.962,-1561.55 742.962,-1581.55 851.962,-1581.55 851.962,-1561.55 742.962,-1561.55"/>
<text text-anchor="start" x="745.962" y="-1567.35" font-family="Times,serif" font-size="14.00">authinfos</text>
<polygon fill="none" stroke="black" points="742.962,-1541.55 742.962,-1561.55 851.962,-1561.55 851.962,-1541.55 742.962,-1541.55"/>
<text text-anchor="start" x="745.962" y="-1547.35" font-family="Times,serif" font-size="14.00">dbgroups</text>
<polygon fill="none" stroke="black" points="742.962,-1521.55 742.962,-1541.55 851.962,-1541.55 851.962,-1521.55 742.962,-1521.55"/>
<text text-anchor="start" x="745.962" y="-1527.35" font-family="Times,serif" font-size="14.00">dbnodes</text>
</g>
<!-- db_dbuser&#45;&gt;db_dbauthinfo -->
<g id="edge3" class="edge"><title>db_dbuser:DbUser_authinfos&#45;&gt;db_dbauthinfo:DbAuthInfo</title>
<path fill="none" stroke="black" stroke-dasharray="5,2" d="M852.962,-1571.55C887.185,-1571.55 873.981,-1699.35 851.962,-1725.55 791.919,-1796.99 648.74,-1677.47 637.645,-1754.2"/>
<polygon fill="black" stroke="black" points="634.128,-1754.34 636.962,-1764.55 641.113,-1754.8 634.128,-1754.34"/>
</g>
<!-- db_dbgroup -->
<g id="node5" class="node"><title>db_dbgroup</title>
<polygon fill="none" stroke="black" points="932.962,-577.551 932.962,-597.551 1109.96,-597.551 1109.96,-577.551 932.962,-577.551"/>
<text text-anchor="start" x="987.631" y="-584.351" font-family="Times,serif" font-weight="bold" font-size="14.00">db_dbgroup</text>
<polygon fill="none" stroke="black" points="932.962,-557.551 932.962,-577.551 1000.96,-577.551 1000.96,-557.551 932.962,-557.551"/>
<text text-anchor="start" x="935.962" y="-564.351" font-family="Times,serif" text-decoration="underline" font-size="14.00">id</text>
<polygon fill="none" stroke="black" points="1000.96,-557.551 1000.96,-577.551 1109.96,-577.551 1109.96,-557.551 1000.96,-557.551"/>
<text text-anchor="start" x="1003.96" y="-563.351" font-family="Times,serif" font-size="14.00">INTEGER</text>
<polygon fill="none" stroke="black" points="932.962,-537.551 932.962,-557.551 1000.96,-557.551 1000.96,-537.551 932.962,-537.551"/>
<text text-anchor="start" x="935.962" y="-543.351" font-family="Times,serif" font-size="14.00">uuid</text>
<polygon fill="none" stroke="black" points="1000.96,-537.551 1000.96,-557.551 1109.96,-557.551 1109.96,-537.551 1000.96,-537.551"/>
<text text-anchor="start" x="1003.96" y="-543.351" font-family="Times,serif" font-size="14.00">UUID?</text>
<polygon fill="none" stroke="black" points="932.962,-517.551 932.962,-537.551 1000.96,-537.551 1000.96,-517.551 932.962,-517.551"/>
<text text-anchor="start" x="935.962" y="-523.351" font-family="Times,serif" font-size="14.00">label</text>
<polygon fill="none" stroke="black" points="1000.96,-517.551 1000.96,-537.551 1109.96,-537.551 1109.96,-517.551 1000.96,-517.551"/>
<text text-anchor="start" x="1003.87" y="-523.351" font-family="Times,serif" font-size="14.00">VARCHAR(255)?</text>
<polygon fill="none" stroke="black" points="932.962,-497.551 932.962,-517.551 1000.96,-517.551 1000.96,-497.551 932.962,-497.551"/>
<text text-anchor="start" x="935.465" y="-503.351" font-family="Times,serif" font-size="14.00">type_string</text>
<polygon fill="none" stroke="black" points="1000.96,-497.551 1000.96,-517.551 1109.96,-517.551 1109.96,-497.551 1000.96,-497.551"/>
<text text-anchor="start" x="1003.87" y="-503.351" font-family="Times,serif" font-size="14.00">VARCHAR(255)?</text>
<polygon fill="none" stroke="black" points="932.962,-477.551 932.962,-497.551 1000.96,-497.551 1000.96,-477.551 932.962,-477.551"/>
<text text-anchor="start" x="935.962" y="-483.351" font-family="Times,serif" font-size="14.00">time</text>
<polygon fill="none" stroke="black" points="1000.96,-477.551 1000.96,-497.551 1109.96,-497.551 1109.96,-477.551 1000.96,-477.551"/>
<text text-anchor="start" x="1003.96" y="-483.351" font-family="Times,serif" font-size="14.00">DATETIME?</text>
<polygon fill="none" stroke="black" points="932.962,-457.551 932.962,-477.551 1000.96,-477.551 1000.96,-457.551 932.962,-457.551"/>
<text text-anchor="start" x="935.858" y="-463.351" font-family="Times,serif" font-size="14.00">description</text>
<polygon fill="none" stroke="black" points="1000.96,-457.551 1000.96,-477.551 1109.96,-477.551 1109.96,-457.551 1000.96,-457.551"/>
<text text-anchor="start" x="1003.96" y="-463.351" font-family="Times,serif" font-size="14.00">TEXT?</text>
<polygon fill="none" stroke="black" points="932.962,-437.551 932.962,-457.551 1000.96,-457.551 1000.96,-437.551 932.962,-437.551"/>
<text text-anchor="start" x="935.962" y="-443.351" font-family="Times,serif" font-size="14.00">user_id</text>
<polygon fill="none" stroke="black" points="1000.96,-437.551 1000.96,-457.551 1109.96,-457.551 1109.96,-437.551 1000.96,-437.551"/>
<text text-anchor="start" x="1003.96" y="-443.351" font-family="Times,serif" font-size="14.00">INTEGER?</text>
<polygon fill="none" stroke="black" points="932.962,-417.551 932.962,-437.551 1109.96,-437.551 1109.96,-417.551 932.962,-417.551"/>
<text text-anchor="start" x="935.962" y="-424.351" font-family="Times,serif" font-weight="bold" font-size="14.00">Constraints</text>
<polygon fill="none" stroke="black" points="932.962,-397.551 932.962,-417.551 1109.96,-417.551 1109.96,-397.551 932.962,-397.551"/>
<text text-anchor="start" x="935.962" y="-403.351" font-family="Times,serif" font-size="14.00">UNIQUE (label, type_string)</text>
<polygon fill="none" stroke="black" points="932.962,-377.551 932.962,-397.551 1109.96,-397.551 1109.96,-377.551 932.962,-377.551"/>
<text text-anchor="start" x="935.962" y="-383.351" font-family="Times,serif" font-size="14.00">UNIQUE (uuid)</text>
<polygon fill="none" stroke="black" points="932.962,-357.551 932.962,-377.551 1109.96,-377.551 1109.96,-357.551 932.962,-357.551"/>
<text text-anchor="start" x="935.962" y="-364.351" font-family="Times,serif" font-weight="bold" font-size="14.00">ORM Classes</text>
<polygon fill="none" stroke="black" points="932.962,-317.551 932.962,-357.551 1000.96,-357.551 1000.96,-317.551 932.962,-317.551"/>
<text text-anchor="start" x="935.962" y="-333.351" font-family="Times,serif" font-size="14.00">DbGroup</text>
<polygon fill="none" stroke="black" points="1000.96,-337.551 1000.96,-357.551 1109.96,-357.551 1109.96,-337.551 1000.96,-337.551"/>
<text text-anchor="start" x="1003.96" y="-343.351" font-family="Times,serif" font-size="14.00">user</text>
<polygon fill="none" stroke="black" points="1000.96,-317.551 1000.96,-337.551 1109.96,-337.551 1109.96,-317.551 1000.96,-317.551"/>
<text text-anchor="start" x="1003.96" y="-323.351" font-family="Times,serif" font-size="14.00">dbnodes</text>
</g>
<!-- db_dbuser&#45;&gt;db_dbgroup -->
<g id="edge4" class="edge"><title>db_dbuser:DbUser_dbgroups&#45;&gt;db_dbgroup:DbGroup</title>
<path fill="none" stroke="black" stroke-dasharray="5,2" d="M852.962,-1551.55C923.522,-1551.55 899.584,-1475.77 923.962,-1409.55 972.041,-1278.96 982.172,-1243.7 998.962,-1105.55 1011.51,-1002.31 1052.05,-726.981 998.962,-637.551 981.906,-608.819 950.072,-630.251 932.962,-601.551 904.797,-554.31 876.999,-363.615 921.975,-339.962"/>
<polygon fill="black" stroke="black" points="923.063,-343.3 931.962,-337.551 921.42,-336.496 923.063,-343.3"/>
</g>
<!-- db_dbuser&#45;&gt;db_dbnode -->
<g id="edge5" class="edge"><title>db_dbuser:DbUser_dbnodes&#45;&gt;db_dbnode:DbNode</title>
<path fill="none" stroke="black" stroke-dasharray="5,2" d="M797.962,-1520.55C797.962,-1436.32 848.365,-1204.99 792.962,-1141.55 721.726,-1059.98 622.762,-1187.5 551.962,-1105.55 439.831,-975.759 378.4,-722.222 540.485,-711.878"/>
<polygon fill="black" stroke="black" points="541.076,-715.361 550.962,-711.551 540.858,-708.364 541.076,-715.361"/>
</g>
<!-- label_db_dbuser_id_db_dbauthinfo_aiidauser_id -->
<g id="node12" class="node"><title>label_db_dbuser_id_db_dbauthinfo_aiidauser_id</title>
<ellipse fill="none" stroke="black" cx="368.962" cy="-1463.55" rx="106.924" ry="18"/>
<text text-anchor="middle" x="368.962" y="-1459.35" font-family="Times,serif" font-size="14.00">ON_DELETE=CASCADE</text>
</g>
<!-- db_dbuser&#45;&gt;label_db_dbuser_id_db_dbauthinfo_aiidauser_id -->
<g id="edge8" class="edge"><title>db_dbuser:id&#45;&gt;label_db_dbuser_id_db_dbauthinfo_aiidauser_id</title>
<path fill="none" stroke="black" d="M676.962,-1691.55C571.904,-1691.55 604.516,-1575.62 516.962,-1517.55 493.163,-1501.77 464.094,-1490.03 438.039,-1481.67"/>
<polygon fill="black" stroke="black" points="438.806,-1478.25 428.219,-1478.63 436.736,-1484.93 438.806,-1478.25"/>
</g>
<!-- label_db_dbuser_id_db_dbgroup_user_id -->
<g id="node13" class="node"><title>label_db_dbuser_id_db_dbgroup_user_id</title>
<ellipse fill="none" stroke="black" cx="882.962" cy="-871.551" rx="106.924" ry="18"/>
<text text-anchor="middle" x="882.962" y="-867.351" font-family="Times,serif" font-size="14.00">ON_DELETE=CASCADE</text>
</g>
<!-- db_dbuser&#45;&gt;label_db_dbuser_id_db_dbgroup_user_id -->
<g id="edge12" class="edge"><title>db_dbuser:id&#45;&gt;label_db_dbuser_id_db_dbgroup_user_id</title>
<path fill="none" stroke="black" d="M676.962,-1691.55C599.627,-1691.55 629.601,-1577.9 677.962,-1517.55 722.729,-1461.69 785.889,-1533.67 834.962,-1481.55 992.628,-1314.09 917.608,-993.301 890.991,-899.149"/>
<polygon fill="black" stroke="black" points="894.352,-898.173 888.217,-889.536 887.627,-900.114 894.352,-898.173"/>
</g>
<!-- label_db_dbuser_id_db_dbnode_user_id -->
<g id="node15" class="node"><title>label_db_dbuser_id_db_dbnode_user_id</title>
<ellipse fill="none" stroke="black" cx="482.962" cy="-1275.55" rx="107.399" ry="18"/>
<text text-anchor="middle" x="482.962" y="-1271.35" font-family="Times,serif" font-size="14.00">ON_DELETE=RESTRICT</text>
</g>
<!-- db_dbuser&#45;&gt;label_db_dbuser_id_db_dbnode_user_id -->
<g id="edge18" class="edge"><title>db_dbuser:id&#45;&gt;label_db_dbuser_id_db_dbnode_user_id</title>
<path fill="none" stroke="black" d="M676.962,-1691.55C561.222,-1691.55 569.386,-1587.57 522.962,-1481.55 496.715,-1421.61 487.596,-1344.31 484.499,-1303.91"/>
<polygon fill="black" stroke="black" points="487.979,-1303.5 483.791,-1293.77 480.996,-1303.99 487.979,-1303.5"/>
</g>
<!-- label_db_dbuser_id_db_dbcomment_user_id -->
<g id="node17" class="node"><title>label_db_dbuser_id_db_dbcomment_user_id</title>
<ellipse fill="none" stroke="black" cx="638.962" cy="-1463.55" rx="106.924" ry="18"/>
<text text-anchor="middle" x="638.962" y="-1459.35" font-family="Times,serif" font-size="14.00">ON_DELETE=CASCADE</text>
</g>
<!-- db_dbuser&#45;&gt;label_db_dbuser_id_db_dbcomment_user_id -->
<g id="edge29" class="edge"><title>db_dbuser:id&#45;&gt;label_db_dbuser_id_db_dbcomment_user_id</title>
<path fill="none" stroke="black" d="M676.962,-1691.55C596.672,-1691.55 619.011,-1551.7 632.336,-1491.54"/>
<polygon fill="black" stroke="black" points="635.788,-1492.14 634.614,-1481.61 628.966,-1490.58 635.788,-1492.14"/>
</g>
<!-- db_dbauthinfo&#45;&gt;db_dbcomputer -->
<g id="edge11" class="edge"><title>db_dbauthinfo:DbAuthInfo_dbcomputer&#45;&gt;db_dbcomputer:DbComputer</title>
<path fill="none" stroke="black" stroke-dasharray="5,2" d="M809.962,-1775.55C913.963,-1775.55 849.623,-1913.83 808.962,-2009.55 799.991,-2030.67 785.934,-2027.35 771.962,-2045.55 750.968,-2072.89 733.664,-2080.85 730.485,-2110.21"/>
<polygon fill="black" stroke="black" points="726.971,-2110.39 729.962,-2120.55 733.962,-2110.74 726.971,-2110.39"/>
</g>
<!-- db_dbauthinfo&#45;&gt;db_dbuser -->
<g id="edge10" class="edge"><title>db_dbauthinfo:DbAuthInfo_aiidauser&#45;&gt;db_dbuser:DbUser</title>
<path fill="none" stroke="black" stroke-dasharray="5,2" d="M809.962,-1795.55C825.079,-1795.55 818.302,-1773.44 808.962,-1761.55 771.656,-1714.07 714.704,-1773.47 677.962,-1725.55 633.109,-1667.06 602.594,-1562 666.793,-1552.28"/>
<polygon fill="black" stroke="black" points="667.236,-1555.75 676.962,-1551.55 666.738,-1548.77 667.236,-1555.75"/>
</g>
<!-- db_dbgroup&#45;&gt;db_dbuser -->
<g id="edge14" class="edge"><title>db_dbgroup:DbGroup_user&#45;&gt;db_dbuser:DbUser</title>
<path fill="none" stroke="black" stroke-dasharray="5,2" d="M1110.96,-347.551C1586.87,-347.551 1148.48,-966.793 973.962,-1409.55 959.948,-1445.1 958.819,-1460.44 926.962,-1481.55 889.309,-1506.5 736.66,-1476.95 713.039,-1510.57"/>
<polygon fill="black" stroke="black" points="709.564,-1509.96 709.962,-1520.55 716.253,-1512.03 709.564,-1509.96"/>
</g>
<!-- db_dbgroup&#45;&gt;db_dbnode -->
<g id="edge15" class="edge"><title>db_dbgroup:DbGroup_dbnodes&#45;&gt;db_dbnode:DbNode</title>
<path fill="none" stroke="black" stroke-dasharray="5,2" d="M1055.96,-316.551C1055.96,-281.59 1357.8,-342.534 1117.46,-601.551 1080.33,-641.573 651.819,-589.407 601.731,-631.542"/>
<polygon fill="black" stroke="black" points="598.547,-630.076 596.962,-640.551 604.734,-633.351 598.547,-630.076"/>
</g>
<!-- db_dbgroup_dbnodes -->
<g id="node8" class="node"><title>db_dbgroup_dbnodes</title>
<polygon fill="none" stroke="black" points="899.962,-193.551 899.962,-213.551 1170.96,-213.551 1170.96,-193.551 899.962,-193.551"/>
<text text-anchor="start" x="974.8" y="-200.351" font-family="Times,serif" font-weight="bold" font-size="14.00">db_dbgroup_dbnodes</text>
<polygon fill="none" stroke="black" points="899.962,-173.551 899.962,-193.551 1033.96,-193.551 1033.96,-173.551 899.962,-173.551"/>
<text text-anchor="start" x="902.962" y="-180.351" font-family="Times,serif" text-decoration="underline" font-size="14.00">id</text>
<polygon fill="none" stroke="black" points="1033.96,-173.551 1033.96,-193.551 1170.96,-193.551 1170.96,-173.551 1033.96,-173.551"/>
<text text-anchor="start" x="1036.96" y="-179.351" font-family="Times,serif" font-size="14.00">INTEGER</text>
<polygon fill="none" stroke="black" points="899.962,-153.551 899.962,-173.551 1033.96,-173.551 1033.96,-153.551 899.962,-153.551"/>
<text text-anchor="start" x="902.962" y="-159.351" font-family="Times,serif" font-size="14.00">dbnode_id</text>
<polygon fill="none" stroke="black" points="1033.96,-153.551 1033.96,-173.551 1170.96,-173.551 1170.96,-153.551 1033.96,-153.551"/>
<text text-anchor="start" x="1036.96" y="-159.351" font-family="Times,serif" font-size="14.00">INTEGER?</text>
<polygon fill="none" stroke="black" points="899.962,-133.551 899.962,-153.551 1033.96,-153.551 1033.96,-133.551 899.962,-133.551"/>
<text text-anchor="start" x="902.962" y="-139.351" font-family="Times,serif" font-size="14.00">dbgroup_id</text>
<polygon fill="none" stroke="black" points="1033.96,-133.551 1033.96,-153.551 1170.96,-153.551 1170.96,-133.551 1033.96,-133.551"/>
<text text-anchor="start" x="1036.96" y="-139.351" font-family="Times,serif" font-size="14.00">INTEGER?</text>
<polygon fill="none" stroke="black" points="899.962,-113.551 899.962,-133.551 1170.96,-133.551 1170.96,-113.551 899.962,-113.551"/>
<text text-anchor="start" x="902.962" y="-120.351" font-family="Times,serif" font-weight="bold" font-size="14.00">Constraints</text>
<polyline fill="none" stroke="black" points="1170.96,-93.5511 1170.96,-113.551 899.962,-113.551 899.962,-93.5511 "/>
<text text-anchor="start" x="902.472" y="-99.3511" font-family="Times,serif" font-size="14.00">db_dbgroup_dbnodes_dbgroup_id_dbnode_id_</text>
<polyline fill="none" stroke="black" points="899.962,-93.5511 899.962,-73.5511 1170.96,-73.5511 1170.96,-93.5511 "/>
<text text-anchor="start" x="902.962" y="-79.3511" font-family="Times,serif" font-size="14.00">key UNIQUE (dbgroup_id, dbnode_id)</text>
</g>
<!-- db_dbgroup&#45;&gt;db_dbgroup_dbnodes -->
<g id="edge33" class="edge"><title>db_dbgroup:id&#45;&gt;db_dbgroup_dbnodes:dbgroup_id</title>
<path fill="none" stroke="black" d="M931.962,-567.551C903.634,-567.551 912.652,-341.751 909.962,-313.551 905.889,-270.847 902.476,-260.375 899.962,-217.551 898.29,-189.077 874.03,-154.339 889.066,-145.613"/>
<polygon fill="black" stroke="black" points="889.886,-149.018 898.962,-143.551 888.458,-142.165 889.886,-149.018"/>
</g>
<!-- db_dbnode&#45;&gt;db_dbcomputer -->
<g id="edge20" class="edge"><title>db_dbnode:DbNode_dbcomputer&#45;&gt;db_dbcomputer:DbComputer</title>
<path fill="none" stroke="black" stroke-dasharray="5,2" d="M751.962,-771.551C770.536,-771.551 756.529,-1090.18 766.962,-1105.55 788.861,-1137.81 823.756,-1110.22 846.962,-1141.55 932.564,-1257.13 887.962,-1318.73 887.962,-1462.55 887.962,-1886.55 887.962,-1886.55 887.962,-1886.55 887.962,-1977.23 889.456,-2014.91 827.962,-2081.55 798.903,-2113.04 741.087,-2080.38 731.365,-2110.34"/>
<polygon fill="black" stroke="black" points="727.855,-2110.17 729.962,-2120.55 734.79,-2111.12 727.855,-2110.17"/>
</g>
<!-- db_dbnode&#45;&gt;db_dbuser -->
<g id="edge21" class="edge"><title>db_dbnode:DbNode_user&#45;&gt;db_dbuser:DbUser</title>
<path fill="none" stroke="black" stroke-dasharray="5,2" d="M751.962,-751.551C771.646,-751.551 757.383,-1088.35 766.962,-1105.55 780.819,-1130.43 806.634,-1116.39 819.962,-1141.55 875.71,-1246.81 823.267,-1290.49 819.962,-1409.55 819.073,-1441.59 835.021,-1455.78 815.962,-1481.55 788.442,-1518.76 721.577,-1477.85 711.298,-1510.56"/>
<polygon fill="black" stroke="black" points="707.818,-1510.18 709.962,-1520.55 714.756,-1511.1 707.818,-1510.18"/>
</g>
<!-- db_dbnode&#45;&gt;db_dbgroup -->
<g id="edge24" class="edge"><title>db_dbnode:DbNode_dbgroups&#45;&gt;db_dbgroup:DbGroup</title>
<path fill="none" stroke="black" stroke-dasharray="5,2" d="M751.962,-691.551C776.87,-691.551 749.136,-654.949 766.962,-637.551 813.865,-591.775 867.558,-651.523 909.962,-601.551 927.072,-581.387 907.436,-384.357 924.617,-344.543"/>
<polygon fill="black" stroke="black" points="927.133,-346.981 931.962,-337.551 922.306,-341.911 927.133,-346.981"/>
</g>
<!-- db_dbnode&#45;&gt;db_dbnode -->
<g id="edge22" class="edge"><title>db_dbnode:DbNode_outputs_q&#45;&gt;db_dbnode:DbNode</title>
<path fill="none" stroke="black" stroke-dasharray="5,2" d="M704.47,-741.768C810.879,-896.013 807.278,-1307.55 646.962,-1307.55 506.623,-1307.55 486.375,-977.542 554.889,-791.25"/>
<polygon fill="black" stroke="black" points="558.251,-792.257 558.543,-781.666 551.71,-789.763 558.251,-792.257"/>
</g>
<!-- db_dbnode&#45;&gt;db_dbnode -->
<g id="edge26" class="edge"><title>db_dbnode:DbNode_inputs_q&#45;&gt;db_dbnode:DbNode</title>
<path fill="none" stroke="black" stroke-dasharray="5,2" d="M704.47,-661.887C810.879,-819.567 807.278,-1307.55 646.962,-1307.55 506.623,-1307.55 486.375,-977.542 554.889,-791.25"/>
<polygon fill="black" stroke="black" points="558.251,-792.257 558.543,-781.666 551.71,-789.763 558.251,-792.257"/>
</g>
<!-- db_dbcomment -->
<g id="node7" class="node"><title>db_dbcomment</title>
<polygon fill="none" stroke="black" points="615.962,-1385.55 615.962,-1405.55 775.962,-1405.55 775.962,-1385.55 615.962,-1385.55"/>
<text text-anchor="start" x="652.413" y="-1392.35" font-family="Times,serif" font-weight="bold" font-size="14.00">db_dbcomment</text>
<polygon fill="none" stroke="black" points="615.962,-1365.55 615.962,-1385.55 693.962,-1385.55 693.962,-1365.55 615.962,-1365.55"/>
<text text-anchor="start" x="618.962" y="-1372.35" font-family="Times,serif" text-decoration="underline" font-size="14.00">id</text>
<polygon fill="none" stroke="black" points="693.962,-1365.55 693.962,-1385.55 775.962,-1385.55 775.962,-1365.55 693.962,-1365.55"/>
<text text-anchor="start" x="696.962" y="-1371.35" font-family="Times,serif" font-size="14.00">INTEGER</text>
<polygon fill="none" stroke="black" points="615.962,-1345.55 615.962,-1365.55 693.962,-1365.55 693.962,-1345.55 615.962,-1345.55"/>
<text text-anchor="start" x="618.962" y="-1351.35" font-family="Times,serif" font-size="14.00">uuid</text>
<polygon fill="none" stroke="black" points="693.962,-1345.55 693.962,-1365.55 775.962,-1365.55 775.962,-1345.55 693.962,-1345.55"/>
<text text-anchor="start" x="696.962" y="-1351.35" font-family="Times,serif" font-size="14.00">UUID?</text>
<polygon fill="none" stroke="black" points="615.962,-1325.55 615.962,-1345.55 693.962,-1345.55 693.962,-1325.55 615.962,-1325.55"/>
<text text-anchor="start" x="618.962" y="-1331.35" font-family="Times,serif" font-size="14.00">dbnode_id</text>
<polygon fill="none" stroke="black" points="693.962,-1325.55 693.962,-1345.55 775.962,-1345.55 775.962,-1325.55 693.962,-1325.55"/>
<text text-anchor="start" x="696.962" y="-1331.35" font-family="Times,serif" font-size="14.00">INTEGER?</text>
<polygon fill="none" stroke="black" points="615.962,-1305.55 615.962,-1325.55 693.962,-1325.55 693.962,-1305.55 615.962,-1305.55"/>
<text text-anchor="start" x="618.962" y="-1311.35" font-family="Times,serif" font-size="14.00">ctime</text>
<polygon fill="none" stroke="black" points="693.962,-1305.55 693.962,-1325.55 775.962,-1325.55 775.962,-1305.55 693.962,-1305.55"/>
<text text-anchor="start" x="696.862" y="-1311.35" font-family="Times,serif" font-size="14.00">DATETIME?</text>
<polygon fill="none" stroke="black" points="615.962,-1285.55 615.962,-1305.55 693.962,-1305.55 693.962,-1285.55 615.962,-1285.55"/>
<text text-anchor="start" x="618.962" y="-1291.35" font-family="Times,serif" font-size="14.00">mtime</text>
<polygon fill="none" stroke="black" points="693.962,-1285.55 693.962,-1305.55 775.962,-1305.55 775.962,-1285.55 693.962,-1285.55"/>
<text text-anchor="start" x="696.862" y="-1291.35" font-family="Times,serif" font-size="14.00">DATETIME?</text>
<polygon fill="none" stroke="black" points="615.962,-1265.55 615.962,-1285.55 693.962,-1285.55 693.962,-1265.55 615.962,-1265.55"/>
<text text-anchor="start" x="618.962" y="-1271.35" font-family="Times,serif" font-size="14.00">user_id</text>
<polygon fill="none" stroke="black" points="693.962,-1265.55 693.962,-1285.55 775.962,-1285.55 775.962,-1265.55 693.962,-1265.55"/>
<text text-anchor="start" x="696.962" y="-1271.35" font-family="Times,serif" font-size="14.00">INTEGER?</text>
<polygon fill="none" stroke="black" points="615.962,-1245.55 615.962,-1265.55 693.962,-1265.55 693.962,-1245.55 615.962,-1245.55"/>
<text text-anchor="start" x="618.962" y="-1251.35" font-family="Times,serif" font-size="14.00">content</text>
<polygon fill="none" stroke="black" points="693.962,-1245.55 693.962,-1265.55 775.962,-1265.55 775.962,-1245.55 693.962,-1245.55"/>
<text text-anchor="start" x="696.962" y="-1251.35" font-family="Times,serif" font-size="14.00">TEXT?</text>
<polygon fill="none" stroke="black" points="615.962,-1225.55 615.962,-1245.55 775.962,-1245.55 775.962,-1225.55 615.962,-1225.55"/>
<text text-anchor="start" x="618.962" y="-1232.35" font-family="Times,serif" font-weight="bold" font-size="14.00">Constraints</text>
<polygon fill="none" stroke="black" points="615.962,-1205.55 615.962,-1225.55 775.962,-1225.55 775.962,-1205.55 615.962,-1205.55"/>
<text text-anchor="start" x="618.962" y="-1211.35" font-family="Times,serif" font-size="14.00">UNIQUE (uuid)</text>
<polygon fill="none" stroke="black" points="615.962,-1185.55 615.962,-1205.55 775.962,-1205.55 775.962,-1185.55 615.962,-1185.55"/>
<text text-anchor="start" x="618.962" y="-1192.35" font-family="Times,serif" font-weight="bold" font-size="14.00">ORM Classes</text>
<polygon fill="none" stroke="black" points="615.962,-1145.55 615.962,-1185.55 693.962,-1185.55 693.962,-1145.55 615.962,-1145.55"/>
<text text-anchor="start" x="618.796" y="-1161.35" font-family="Times,serif" font-size="14.00">DbComment</text>
<polygon fill="none" stroke="black" points="693.962,-1165.55 693.962,-1185.55 775.962,-1185.55 775.962,-1165.55 693.962,-1165.55"/>
<text text-anchor="start" x="696.962" y="-1171.35" font-family="Times,serif" font-size="14.00">dbnode</text>
<polygon fill="none" stroke="black" points="693.962,-1145.55 693.962,-1165.55 775.962,-1165.55 775.962,-1145.55 693.962,-1145.55"/>
<text text-anchor="start" x="696.962" y="-1151.35" font-family="Times,serif" font-size="14.00">user</text>
</g>
<!-- db_dbnode&#45;&gt;db_dbcomment -->
<g id="edge23" class="edge"><title>db_dbnode:DbNode_dbcomments&#45;&gt;db_dbcomment:DbComment</title>
<path fill="none" stroke="black" stroke-dasharray="5,2" d="M751.962,-711.551C773.851,-711.551 763.208,-1087.41 750.962,-1105.55 727.411,-1140.44 666.705,-1105.66 656.445,-1134.59"/>
<polygon fill="black" stroke="black" points="652.973,-1134.14 654.962,-1144.55 659.896,-1135.18 652.973,-1134.14"/>
</g>
<!-- db_dbnode&#45;&gt;db_dbgroup_dbnodes -->
<g id="edge34" class="edge"><title>db_dbnode:id&#45;&gt;db_dbgroup_dbnodes:dbnode_id</title>
<path fill="none" stroke="black" d="M550.962,-1071.55C358.072,-1071.55 424.234,-782.092 551.962,-637.551 636.504,-541.88 746.01,-691.151 836.962,-601.551 837.958,-600.57 887.228,-238.542 897.231,-173.499"/>
<polygon fill="black" stroke="black" points="900.696,-174.003 898.962,-163.551 893.8,-172.803 900.696,-174.003"/>
</g>
<!-- db_dblink -->
<g id="node9" class="node"><title>db_dblink</title>
<polygon fill="none" stroke="black" points="372.962,-213.551 372.962,-233.551 540.962,-233.551 540.962,-213.551 372.962,-213.551"/>
<text text-anchor="start" x="428.572" y="-220.351" font-family="Times,serif" font-weight="bold" font-size="14.00">db_dblink</text>
<polygon fill="none" stroke="black" points="372.962,-193.551 372.962,-213.551 431.962,-213.551 431.962,-193.551 372.962,-193.551"/>
<text text-anchor="start" x="375.962" y="-200.351" font-family="Times,serif" text-decoration="underline" font-size="14.00">id</text>
<polygon fill="none" stroke="black" points="431.962,-193.551 431.962,-213.551 540.962,-213.551 540.962,-193.551 431.962,-193.551"/>
<text text-anchor="start" x="434.962" y="-199.351" font-family="Times,serif" font-size="14.00">INTEGER</text>
<polygon fill="none" stroke="black" points="372.962,-173.551 372.962,-193.551 431.962,-193.551 431.962,-173.551 372.962,-173.551"/>
<text text-anchor="start" x="375.962" y="-179.351" font-family="Times,serif" font-size="14.00">input_id</text>
<polygon fill="none" stroke="black" points="431.962,-173.551 431.962,-193.551 540.962,-193.551 540.962,-173.551 431.962,-173.551"/>
<text text-anchor="start" x="434.962" y="-179.351" font-family="Times,serif" font-size="14.00">INTEGER?</text>
<polygon fill="none" stroke="black" points="372.962,-153.551 372.962,-173.551 431.962,-173.551 431.962,-153.551 372.962,-153.551"/>
<text text-anchor="start" x="375.627" y="-159.351" font-family="Times,serif" font-size="14.00">output_id</text>
<polygon fill="none" stroke="black" points="431.962,-153.551 431.962,-173.551 540.962,-173.551 540.962,-153.551 431.962,-153.551"/>
<text text-anchor="start" x="434.962" y="-159.351" font-family="Times,serif" font-size="14.00">INTEGER?</text>
<polygon fill="none" stroke="black" points="372.962,-133.551 372.962,-153.551 431.962,-153.551 431.962,-133.551 372.962,-133.551"/>
<text text-anchor="start" x="375.962" y="-139.351" font-family="Times,serif" font-size="14.00">label</text>
<polygon fill="none" stroke="black" points="431.962,-133.551 431.962,-153.551 540.962,-153.551 540.962,-133.551 431.962,-133.551"/>
<text text-anchor="start" x="434.962" y="-139.351" font-family="Times,serif" font-size="14.00">VARCHAR(255)</text>
<polygon fill="none" stroke="black" points="372.962,-113.551 372.962,-133.551 431.962,-133.551 431.962,-113.551 372.962,-113.551"/>
<text text-anchor="start" x="375.962" y="-119.351" font-family="Times,serif" font-size="14.00">type</text>
<polygon fill="none" stroke="black" points="431.962,-113.551 431.962,-133.551 540.962,-133.551 540.962,-113.551 431.962,-113.551"/>
<text text-anchor="start" x="434.868" y="-119.351" font-family="Times,serif" font-size="14.00">VARCHAR(255)?</text>
<polygon fill="none" stroke="black" points="372.962,-93.5511 372.962,-113.551 540.962,-113.551 540.962,-93.5511 372.962,-93.5511"/>
<text text-anchor="start" x="375.962" y="-100.351" font-family="Times,serif" font-weight="bold" font-size="14.00">ORM Classes</text>
<polygon fill="none" stroke="black" points="372.962,-53.5511 372.962,-93.5511 431.962,-93.5511 431.962,-53.5511 372.962,-53.5511"/>
<text text-anchor="start" x="375.962" y="-69.3511" font-family="Times,serif" font-size="14.00">DbLink</text>
<polygon fill="none" stroke="black" points="431.962,-73.5511 431.962,-93.5511 540.962,-93.5511 540.962,-73.5511 431.962,-73.5511"/>
<text text-anchor="start" x="434.962" y="-79.3511" font-family="Times,serif" font-size="14.00">input</text>
<polygon fill="none" stroke="black" points="431.962,-53.5511 431.962,-73.5511 540.962,-73.5511 540.962,-53.5511 431.962,-53.5511"/>
<text text-anchor="start" x="434.962" y="-59.3511" font-family="Times,serif" font-size="14.00">output</text>
</g>
<!-- db_dbnode&#45;&gt;db_dblink -->
<g id="edge37" class="edge"><title>db_dbnode:id&#45;&gt;db_dblink:input_id</title>
<path fill="none" stroke="black" d="M550.962,-1071.55C333.487,-1071.55 476.237,-793.791 324.962,-637.551 302.26,-614.105 277.438,-629.722 260.962,-601.551 228.652,-546.306 238.814,-373.597 260.962,-313.551 286.02,-245.612 295.13,-189.084 361.712,-183.933"/>
<polygon fill="black" stroke="black" points="362.099,-187.421 371.962,-183.551 361.838,-180.426 362.099,-187.421"/>
</g>
<!-- db_dblog -->
<g id="node10" class="node"><title>db_dblog</title>
<polygon fill="none" stroke="black" points="684.962,-253.551 684.962,-273.551 865.962,-273.551 865.962,-253.551 684.962,-253.551"/>
<text text-anchor="start" x="749.017" y="-260.351" font-family="Times,serif" font-weight="bold" font-size="14.00">db_dblog</text>
<polygon fill="none" stroke="black" points="684.962,-233.551 684.962,-253.551 756.962,-253.551 756.962,-233.551 684.962,-233.551"/>
<text text-anchor="start" x="687.962" y="-240.351" font-family="Times,serif" text-decoration="underline" font-size="14.00">id</text>
<polygon fill="none" stroke="black" points="756.962,-233.551 756.962,-253.551 865.962,-253.551 865.962,-233.551 756.962,-233.551"/>
<text text-anchor="start" x="759.962" y="-239.351" font-family="Times,serif" font-size="14.00">INTEGER</text>
<polygon fill="none" stroke="black" points="684.962,-213.551 684.962,-233.551 756.962,-233.551 756.962,-213.551 684.962,-213.551"/>
<text text-anchor="start" x="687.962" y="-219.351" font-family="Times,serif" font-size="14.00">uuid</text>
<polygon fill="none" stroke="black" points="756.962,-213.551 756.962,-233.551 865.962,-233.551 865.962,-213.551 756.962,-213.551"/>
<text text-anchor="start" x="759.962" y="-219.351" font-family="Times,serif" font-size="14.00">UUID?</text>
<polygon fill="none" stroke="black" points="684.962,-193.551 684.962,-213.551 756.962,-213.551 756.962,-193.551 684.962,-193.551"/>
<text text-anchor="start" x="687.962" y="-199.351" font-family="Times,serif" font-size="14.00">time</text>
<polygon fill="none" stroke="black" points="756.962,-193.551 756.962,-213.551 865.962,-213.551 865.962,-193.551 756.962,-193.551"/>
<text text-anchor="start" x="759.962" y="-199.351" font-family="Times,serif" font-size="14.00">DATETIME?</text>
<polygon fill="none" stroke="black" points="684.962,-173.551 684.962,-193.551 756.962,-193.551 756.962,-173.551 684.962,-173.551"/>
<text text-anchor="start" x="687.92" y="-179.351" font-family="Times,serif" font-size="14.00">loggername</text>
<polygon fill="none" stroke="black" points="756.962,-173.551 756.962,-193.551 865.962,-193.551 865.962,-173.551 756.962,-173.551"/>
<text text-anchor="start" x="759.868" y="-179.351" font-family="Times,serif" font-size="14.00">VARCHAR(255)?</text>
<polygon fill="none" stroke="black" points="684.962,-153.551 684.962,-173.551 756.962,-173.551 756.962,-153.551 684.962,-153.551"/>
<text text-anchor="start" x="687.962" y="-159.351" font-family="Times,serif" font-size="14.00">levelname</text>
<polygon fill="none" stroke="black" points="756.962,-153.551 756.962,-173.551 865.962,-173.551 865.962,-153.551 756.962,-153.551"/>
<text text-anchor="start" x="759.868" y="-159.351" font-family="Times,serif" font-size="14.00">VARCHAR(255)?</text>
<polygon fill="none" stroke="black" points="684.962,-133.551 684.962,-153.551 756.962,-153.551 756.962,-133.551 684.962,-133.551"/>
<text text-anchor="start" x="687.962" y="-139.351" font-family="Times,serif" font-size="14.00">dbnode_id</text>
<polygon fill="none" stroke="black" points="756.962,-133.551 756.962,-153.551 865.962,-153.551 865.962,-133.551 756.962,-133.551"/>
<text text-anchor="start" x="759.962" y="-139.351" font-family="Times,serif" font-size="14.00">INTEGER</text>
<polygon fill="none" stroke="black" points="684.962,-113.551 684.962,-133.551 756.962,-133.551 756.962,-113.551 684.962,-113.551"/>
<text text-anchor="start" x="687.962" y="-119.351" font-family="Times,serif" font-size="14.00">message</text>
<polygon fill="none" stroke="black" points="756.962,-113.551 756.962,-133.551 865.962,-133.551 865.962,-113.551 756.962,-113.551"/>
<text text-anchor="start" x="759.962" y="-119.351" font-family="Times,serif" font-size="14.00">TEXT?</text>
<polygon fill="none" stroke="black" points="684.962,-93.5511 684.962,-113.551 756.962,-113.551 756.962,-93.5511 684.962,-93.5511"/>
<text text-anchor="start" x="687.962" y="-99.3511" font-family="Times,serif" font-size="14.00">metadata</text>
<polygon fill="none" stroke="black" points="756.962,-93.5511 756.962,-113.551 865.962,-113.551 865.962,-93.5511 756.962,-93.5511"/>
<text text-anchor="start" x="759.962" y="-99.3511" font-family="Times,serif" font-size="14.00">JSONB?</text>
<polygon fill="none" stroke="black" points="684.962,-73.5511 684.962,-93.5511 865.962,-93.5511 865.962,-73.5511 684.962,-73.5511"/>
<text text-anchor="start" x="687.962" y="-80.3511" font-family="Times,serif" font-weight="bold" font-size="14.00">Constraints</text>
<polygon fill="none" stroke="black" points="684.962,-53.5511 684.962,-73.5511 865.962,-73.5511 865.962,-53.5511 684.962,-53.5511"/>
<text text-anchor="start" x="687.962" y="-59.3511" font-family="Times,serif" font-size="14.00">UNIQUE (uuid)</text>
<polygon fill="none" stroke="black" points="684.962,-33.5511 684.962,-53.5511 865.962,-53.5511 865.962,-33.5511 684.962,-33.5511"/>
<text text-anchor="start" x="687.962" y="-40.3511" font-family="Times,serif" font-weight="bold" font-size="14.00">ORM Classes</text>
<polygon fill="none" stroke="black" points="684.962,-13.5511 684.962,-33.5511 756.962,-33.5511 756.962,-13.5511 684.962,-13.5511"/>
<text text-anchor="start" x="687.962" y="-19.3511" font-family="Times,serif" font-size="14.00">DbLog</text>
<polygon fill="none" stroke="black" points="756.962,-13.5511 756.962,-33.5511 865.962,-33.5511 865.962,-13.5511 756.962,-13.5511"/>
<text text-anchor="start" x="759.962" y="-19.3511" font-family="Times,serif" font-size="14.00">dbnode</text>
</g>
<!-- db_dbnode&#45;&gt;db_dblog -->
<g id="edge25" class="edge"><title>db_dbnode:DbNode_dblogs&#45;&gt;db_dblog:DbLog</title>
<path fill="none" stroke="black" stroke-dasharray="5,2" d="M751.962,-671.551C768.478,-671.551 755.745,-649.674 766.962,-637.551 789.92,-612.739 816.615,-630.565 833.962,-601.551 899.647,-491.69 913.753,-413.638 833.962,-313.551 789.201,-257.404 721.223,-333.698 676.462,-277.551 603.32,-185.805 594.432,-97.4451 676.462,-13.5511 687.267,-2.50046 708.35,3.96837 717.056,-3.16347"/>
<polygon fill="black" stroke="black" points="713.889,-4.66259 720.962,-12.5511 720.352,-1.97379 713.889,-4.66259"/>
</g>
<!-- label_db_dbnode_id_db_dbcomment_dbnode_id -->
<g id="node16" class="node"><title>label_db_dbnode_id_db_dbcomment_dbnode_id</title>
<ellipse fill="none" stroke="black" cx="106.962" cy="-457.551" rx="106.924" ry="18"/>
<text text-anchor="middle" x="106.962" y="-453.351" font-family="Times,serif" font-size="14.00">ON_DELETE=CASCADE</text>
</g>
<!-- db_dbnode&#45;&gt;label_db_dbnode_id_db_dbcomment_dbnode_id -->
<g id="edge27" class="edge"><title>db_dbnode:id&#45;&gt;label_db_dbnode_id_db_dbcomment_dbnode_id</title>
<path fill="none" stroke="black" d="M550.962,-1071.55C333.487,-1071.55 488.024,-781.446 324.962,-637.551 290.483,-607.125 265.601,-627.968 227.962,-601.551 182.171,-569.413 143.285,-515.898 122.699,-484.246"/>
<polygon fill="black" stroke="black" points="125.481,-482.098 117.149,-475.553 119.581,-485.865 125.481,-482.098"/>
</g>
<!-- label_db_dbnode_id_db_dblink_output_id -->
<g id="node18" class="node"><title>label_db_dbnode_id_db_dblink_output_id</title>
<ellipse fill="none" stroke="black" cx="376.962" cy="-457.551" rx="106.924" ry="18"/>
<text text-anchor="middle" x="376.962" y="-453.351" font-family="Times,serif" font-size="14.00">ON_DELETE=CASCADE</text>
</g>
<!-- db_dbnode&#45;&gt;label_db_dbnode_id_db_dblink_output_id -->
<g id="edge35" class="edge"><title>db_dbnode:id&#45;&gt;label_db_dbnode_id_db_dblink_output_id</title>
<path fill="none" stroke="black" d="M550.962,-1071.55C303.684,-1071.55 355.568,-604.224 372.713,-485.647"/>
<polygon fill="black" stroke="black" points="376.2,-485.992 374.207,-475.586 369.276,-484.963 376.2,-485.992"/>
</g>
<!-- label_db_dbnode_id_db_dblog_dbnode_id -->
<g id="node19" class="node"><title>label_db_dbnode_id_db_dblog_dbnode_id</title>
<ellipse fill="none" stroke="black" cx="684.962" cy="-457.551" rx="106.924" ry="18"/>
<text text-anchor="middle" x="684.962" y="-453.351" font-family="Times,serif" font-size="14.00">ON_DELETE=CASCADE</text>
</g>
<!-- db_dbnode&#45;&gt;label_db_dbnode_id_db_dblog_dbnode_id -->
<g id="edge40" class="edge"><title>db_dbnode:id&#45;&gt;label_db_dbnode_id_db_dblog_dbnode_id</title>
<path fill="none" stroke="black" d="M550.962,-1071.55C358.072,-1071.55 491.164,-820.608 551.962,-637.551 573.088,-573.943 626.464,-514.505 658.811,-482.686"/>
<polygon fill="black" stroke="black" points="661.404,-485.047 666.157,-475.578 656.537,-480.016 661.404,-485.047"/>
</g>
<!-- db_dbcomment&#45;&gt;db_dbuser -->
<g id="edge32" class="edge"><title>db_dbcomment:DbComment_user&#45;&gt;db_dbuser:DbUser</title>
<path fill="none" stroke="black" stroke-dasharray="5,2" d="M776.962,-1155.55C805.184,-1155.55 780.008,-1381.62 775.962,-1409.55 771.183,-1442.54 772.957,-1453.49 754.962,-1481.55 742.907,-1500.35 719.158,-1496.35 712.031,-1510.54"/>
<polygon fill="black" stroke="black" points="708.558,-1510.05 709.962,-1520.55 715.413,-1511.47 708.558,-1510.05"/>
</g>
<!-- db_dbcomment&#45;&gt;db_dbnode -->
<g id="edge31" class="edge"><title>db_dbcomment:DbComment_dbnode&#45;&gt;db_dbnode:DbNode</title>
<path fill="none" stroke="black" stroke-dasharray="5,2" d="M776.962,-1175.55C792.079,-1175.55 785.935,-1152.91 775.962,-1141.55 709.442,-1065.77 617.458,-1182.22 551.962,-1105.55 440.551,-975.141 378.43,-722.197 540.486,-711.877"/>
<polygon fill="black" stroke="black" points="541.075,-715.36 550.962,-711.551 540.858,-708.364 541.075,-715.36"/>
</g>
<!-- db_dblink&#45;&gt;db_dbnode -->
<g id="edge38" class="edge"><title>db_dblink:DbLink_input&#45;&gt;db_dbnode:DbNode</title>
<path fill="none" stroke="black" stroke-dasharray="5,2" d="M541.962,-83.5511C570.779,-83.5511 559.423,-574.359 568.962,-601.551 574.645,-617.754 589.313,-619.317 594.825,-630.427"/>
<polygon fill="black" stroke="black" points="591.472,-631.489 596.962,-640.551 598.321,-630.044 591.472,-631.489"/>
</g>
<!-- db_dblink&#45;&gt;db_dbnode -->
<g id="edge39" class="edge"><title>db_dblink:DbLink_output&#45;&gt;db_dbnode:DbNode</title>
<path fill="none" stroke="black" stroke-dasharray="5,2" d="M541.962,-63.5511C571.866,-63.5511 547.262,-574.031 558.962,-601.551 566.803,-619.995 587.717,-618.04 594.675,-630.568"/>
<polygon fill="black" stroke="black" points="591.317,-631.585 596.962,-640.551 598.14,-630.022 591.317,-631.585"/>
</g>
<!-- db_dblog&#45;&gt;db_dbnode -->
<g id="edge42" class="edge"><title>db_dblog:DbLog_dbnode&#45;&gt;db_dbnode:DbNode</title>
<path fill="none" stroke="black" stroke-dasharray="5,2" d="M866.962,-23.5511C895.184,-23.5511 873.659,-250.399 865.962,-277.551 860.848,-295.591 850.363,-295.926 843.962,-313.551 799.781,-435.195 890.594,-508.196 800.962,-601.551 739.653,-665.406 608.324,-557.764 597.654,-630.236"/>
<polygon fill="black" stroke="black" points="594.139,-630.339 596.962,-640.551 601.123,-630.808 594.139,-630.339"/>
</g>
<!-- label_db_dbcomputer_id_db_dbauthinfo_dbcomputer_id&#45;&gt;db_dbauthinfo -->
<g id="edge7" class="edge"><title>label_db_dbcomputer_id_db_dbauthinfo_dbcomputer_id&#45;&gt;db_dbauthinfo:dbcomputer_id</title>
<path fill="none" stroke="black" d="M602.697,-2045.61C592.951,-2036.13 582.256,-2023.44 576.962,-2009.55 566.711,-1982.66 548.451,-1946.17 566.081,-1937.47"/>
<polygon fill="black" stroke="black" points="566.813,-1940.89 575.962,-1935.55 565.478,-1934.02 566.813,-1940.89"/>
</g>
<!-- label_db_dbuser_id_db_dbauthinfo_aiidauser_id&#45;&gt;db_dbauthinfo -->
<g id="edge9" class="edge"><title>label_db_dbuser_id_db_dbauthinfo_aiidauser_id&#45;&gt;db_dbauthinfo:aiidauser_id</title>
<path fill="none" stroke="black" d="M372.23,-1481.74C388.688,-1565.84 465.656,-1930.93 565.874,-1954.37"/>
<polygon fill="black" stroke="black" points="565.622,-1957.86 575.962,-1955.55 566.437,-1950.91 565.622,-1957.86"/>
</g>
<!-- label_db_dbuser_id_db_dbgroup_user_id&#45;&gt;db_dbgroup -->
<g id="edge13" class="edge"><title>label_db_dbuser_id_db_dbgroup_user_id&#45;&gt;db_dbgroup:user_id</title>
<path fill="none" stroke="black" d="M884.715,-853.445C892.009,-782.5 920.019,-512.547 929.485,-457.418"/>
<polygon fill="black" stroke="black" points="932.922,-458.102 931.962,-447.551 926.132,-456.398 932.922,-458.102"/>
</g>
<!-- label_db_dbcomputer_id_db_dbnode_dbcomputer_id&#45;&gt;db_dbnode -->
<g id="edge17" class="edge"><title>label_db_dbcomputer_id_db_dbnode_dbcomputer_id&#45;&gt;db_dbnode:dbcomputer_id</title>
<path fill="none" stroke="black" d="M314.181,-1867.39C302.184,-1811.93 265.047,-1632.37 252.962,-1481.55 229.133,-1184.16 248.777,-878.496 540.902,-871.668"/>
<polygon fill="black" stroke="black" points="541.003,-875.167 550.962,-871.551 540.922,-868.167 541.003,-875.167"/>
</g>
<!-- label_db_dbuser_id_db_dbnode_user_id&#45;&gt;db_dbnode -->
<g id="edge19" class="edge"><title>label_db_dbuser_id_db_dbnode_user_id&#45;&gt;db_dbnode:user_id</title>
<path fill="none" stroke="black" d="M478.35,-1257.45C458.321,-1179.93 386.631,-864.849 540.968,-851.958"/>
<polygon fill="black" stroke="black" points="541.113,-855.455 550.962,-851.551 540.828,-848.461 541.113,-855.455"/>
</g>
<!-- label_db_dbnode_id_db_dbcomment_dbnode_id&#45;&gt;db_dbcomment -->
<g id="edge28" class="edge"><title>label_db_dbnode_id_db_dbcomment_dbnode_id&#45;&gt;db_dbcomment:dbnode_id</title>
<path fill="none" stroke="black" d="M114.452,-475.668C150.285,-555.951 311.7,-899.892 533.962,-1105.55 558.201,-1127.98 581.04,-1113.81 598.962,-1141.55 609.187,-1157.38 597.327,-1292.84 608.396,-1327.5"/>
<polygon fill="black" stroke="black" points="605.929,-1330.01 614.962,-1335.55 611.354,-1325.59 605.929,-1330.01"/>
</g>
<!-- label_db_dbuser_id_db_dbcomment_user_id&#45;&gt;db_dbcomment -->
<g id="edge30" class="edge"><title>label_db_dbuser_id_db_dbcomment_user_id&#45;&gt;db_dbcomment:user_id</title>
<path fill="none" stroke="black" d="M629.454,-1445.47C624.369,-1435.36 618.619,-1422.11 615.962,-1409.55 610.594,-1384.17 591.223,-1301.33 606.001,-1280.39"/>
<polygon fill="black" stroke="black" points="607.827,-1283.38 614.962,-1275.55 604.5,-1277.22 607.827,-1283.38"/>
</g>
<!-- label_db_dbnode_id_db_dblink_output_id&#45;&gt;db_dblink -->
<g id="edge36" class="edge"><title>label_db_dbnode_id_db_dblink_output_id&#45;&gt;db_dblink:output_id</title>
<path fill="none" stroke="black" d="M369.515,-439.532C343.89,-379.014 266.041,-177.152 361.809,-164.204"/>
<polygon fill="black" stroke="black" points="362.207,-167.686 371.962,-163.551 361.758,-160.7 362.207,-167.686"/>
</g>
<!-- label_db_dbnode_id_db_dblog_dbnode_id&#45;&gt;db_dblog -->
<g id="edge41" class="edge"><title>label_db_dbnode_id_db_dblog_dbnode_id&#45;&gt;db_dblog:dbnode_id</title>
<path fill="none" stroke="black" d="M677.632,-439.277C651.5,-375.646 569.837,-157.333 673.686,-144.173"/>
<polygon fill="black" stroke="black" points="674.191,-147.649 683.962,-143.551 673.769,-140.661 674.191,-147.649"/>
</g>
</g>
</svg>
